<svg width="485" height="80" viewBox="0 0 485 80" fill="none" xmlns="http://www.w3.org/2000/svg">
<rect width="485" height="80" fill="white"/>
<path d="M165.99 46V37.4688H168.398C169.141 37.4688 169.797 37.6328 170.367 37.9609C170.938 38.2891 171.377 38.7559 171.686 39.3613C171.998 39.9668 172.156 40.6621 172.16 41.4473V41.9922C172.16 42.7969 172.004 43.502 171.691 44.1074C171.383 44.7129 170.939 45.1777 170.361 45.502C169.787 45.8262 169.117 45.9922 168.352 46H165.99ZM167.115 38.3945V45.0801H168.299C169.166 45.0801 169.84 44.8105 170.32 44.2715C170.805 43.7324 171.047 42.9648 171.047 41.9688V41.4707C171.047 40.502 170.818 39.75 170.361 39.2148C169.908 38.6758 169.264 38.4023 168.428 38.3945H167.115ZM175.072 46H173.947V37.4688H175.072V46ZM179.648 42.1973C178.684 41.9199 177.98 41.5801 177.539 41.1777C177.102 40.7715 176.883 40.2715 176.883 39.6777C176.883 39.0059 177.15 38.4512 177.686 38.0137C178.225 37.5723 178.924 37.3516 179.783 37.3516C180.369 37.3516 180.891 37.4648 181.348 37.6914C181.809 37.918 182.164 38.2305 182.414 38.6289C182.668 39.0273 182.795 39.4629 182.795 39.9355H181.664C181.664 39.4199 181.5 39.0156 181.172 38.7227C180.844 38.4258 180.381 38.2773 179.783 38.2773C179.229 38.2773 178.795 38.4004 178.482 38.6465C178.174 38.8887 178.02 39.2266 178.02 39.6602C178.02 40.0078 178.166 40.3027 178.459 40.5449C178.756 40.7832 179.258 41.002 179.965 41.2012C180.676 41.4004 181.23 41.6211 181.629 41.8633C182.031 42.1016 182.328 42.3809 182.52 42.7012C182.715 43.0215 182.812 43.3984 182.812 43.832C182.812 44.5234 182.543 45.0781 182.004 45.4961C181.465 45.9102 180.744 46.1172 179.842 46.1172C179.256 46.1172 178.709 46.0059 178.201 45.7832C177.693 45.5566 177.301 45.248 177.023 44.8574C176.75 44.4668 176.613 44.0234 176.613 43.5273H177.744C177.744 44.043 177.934 44.4512 178.312 44.752C178.695 45.0488 179.205 45.1973 179.842 45.1973C180.436 45.1973 180.891 45.0762 181.207 44.834C181.523 44.5918 181.682 44.2617 181.682 43.8438C181.682 43.4258 181.535 43.1035 181.242 42.877C180.949 42.6465 180.418 42.4199 179.648 42.1973ZM185.713 37.4688L188.502 44.4297L191.291 37.4688H192.75V46H191.625V42.6777L191.73 39.0918L188.93 46H188.068L185.273 39.1094L185.385 42.6777V46H184.26V37.4688H185.713ZM195.943 46H194.818V37.4688H195.943V46ZM204.562 46H203.432L199.137 39.4258V46H198.006V37.4688H199.137L203.443 44.0723V37.4688H204.562V46ZM212.566 37.4688V43.2695C212.562 44.0742 212.309 44.7324 211.805 45.2441C211.305 45.7559 210.625 46.043 209.766 46.1055L209.467 46.1172C208.533 46.1172 207.789 45.8652 207.234 45.3613C206.68 44.8574 206.398 44.1641 206.391 43.2812V37.4688H207.504V43.2461C207.504 43.8633 207.674 44.3438 208.014 44.6875C208.354 45.0273 208.838 45.1973 209.467 45.1973C210.104 45.1973 210.59 45.0273 210.926 44.6875C211.266 44.3477 211.436 43.8691 211.436 43.252V37.4688H212.566ZM216.943 41.752L219.17 37.4688H220.447L217.506 42.8184V46H216.381V42.8184L213.439 37.4688H214.729L216.943 41.752ZM225.709 43.7734H222.135L221.332 46H220.172L223.43 37.4688H224.414L227.678 46H226.523L225.709 43.7734ZM222.475 42.8477H225.375L223.922 38.8574L222.475 42.8477ZM241.5 46C241.438 45.875 241.387 45.6523 241.348 45.332C240.844 45.8555 240.242 46.1172 239.543 46.1172C238.918 46.1172 238.404 45.9414 238.002 45.5898C237.604 45.2344 237.404 44.7852 237.404 44.2422C237.404 43.582 237.654 43.0703 238.154 42.707C238.658 42.3398 239.365 42.1562 240.275 42.1562H241.33V41.6582C241.33 41.2793 241.217 40.9785 240.99 40.7559C240.764 40.5293 240.43 40.416 239.988 40.416C239.602 40.416 239.277 40.5137 239.016 40.709C238.754 40.9043 238.623 41.1406 238.623 41.418H237.533C237.533 41.1016 237.645 40.7969 237.867 40.5039C238.094 40.207 238.398 39.9727 238.781 39.8008C239.168 39.6289 239.592 39.543 240.053 39.543C240.783 39.543 241.355 39.7266 241.77 40.0938C242.184 40.457 242.398 40.959 242.414 41.5996V44.5176C242.414 45.0996 242.488 45.5625 242.637 45.9062V46H241.5ZM239.701 45.1738C240.041 45.1738 240.363 45.0859 240.668 44.9102C240.973 44.7344 241.193 44.5059 241.33 44.2246V42.9238H240.48C239.152 42.9238 238.488 43.3125 238.488 44.0898C238.488 44.4297 238.602 44.6953 238.828 44.8867C239.055 45.0781 239.346 45.1738 239.701 45.1738ZM251.232 37.4629V38.3828H251.033C250.189 38.3984 249.518 38.6484 249.018 39.1328C248.518 39.6172 248.229 40.2988 248.15 41.1777C248.6 40.6621 249.213 40.4043 249.99 40.4043C250.732 40.4043 251.324 40.666 251.766 41.1895C252.211 41.7129 252.434 42.3887 252.434 43.2168C252.434 44.0957 252.193 44.7988 251.713 45.3262C251.236 45.8535 250.596 46.1172 249.791 46.1172C248.975 46.1172 248.312 45.8047 247.805 45.1797C247.297 44.5508 247.043 43.7422 247.043 42.7539V42.3379C247.043 40.7676 247.377 39.5684 248.045 38.7402C248.717 37.9082 249.715 37.4824 251.039 37.4629H251.232ZM249.809 41.3066C249.438 41.3066 249.096 41.418 248.783 41.6406C248.471 41.8633 248.254 42.1426 248.133 42.4785V42.877C248.133 43.5801 248.291 44.1465 248.607 44.5762C248.924 45.0059 249.318 45.2207 249.791 45.2207C250.279 45.2207 250.662 45.041 250.939 44.6816C251.221 44.3223 251.361 43.8516 251.361 43.2695C251.361 42.6836 251.219 42.2109 250.934 41.8516C250.652 41.4883 250.277 41.3066 249.809 41.3066ZM256.166 42.0332L255.123 43.1172V46H253.998V37.4688H255.123V41.6875L258.914 37.4688H260.273L256.916 41.2363L260.537 46H259.189L256.166 42.0332ZM262.23 39.6602L262.26 40.3633C262.725 39.8164 263.352 39.543 264.141 39.543C265.027 39.543 265.631 39.8828 265.951 40.5625C266.162 40.2578 266.436 40.0117 266.771 39.8242C267.111 39.6367 267.512 39.543 267.973 39.543C269.363 39.543 270.07 40.2793 270.094 41.752V46H269.01V41.8164C269.01 41.3633 268.906 41.0254 268.699 40.8027C268.492 40.5762 268.145 40.4629 267.656 40.4629C267.254 40.4629 266.92 40.584 266.654 40.8262C266.389 41.0645 266.234 41.3867 266.191 41.793V46H265.102V41.8457C265.102 40.9238 264.65 40.4629 263.748 40.4629C263.037 40.4629 262.551 40.7656 262.289 41.3711V46H261.205V39.6602H262.23Z" fill="black"/>
</svg>
