<svg width="485" height="80" viewBox="0 0 485 80" fill="none" xmlns="http://www.w3.org/2000/svg">
<rect width="485" height="80" fill="white"/>
<path d="M165.99 46V37.4688H168.398C169.141 37.4688 169.797 37.6328 170.367 37.9609C170.938 38.2891 171.377 38.7559 171.686 39.3613C171.998 39.9668 172.156 40.6621 172.16 41.4473V41.9922C172.16 42.7969 172.004 43.502 171.691 44.1074C171.383 44.7129 170.939 45.1777 170.361 45.502C169.787 45.8262 169.117 45.9922 168.352 46H165.99ZM167.115 38.3945V45.0801H168.299C169.166 45.0801 169.84 44.8105 170.32 44.2715C170.805 43.7324 171.047 42.9648 171.047 41.9688V41.4707C171.047 40.502 170.818 39.75 170.361 39.2148C169.908 38.6758 169.264 38.4023 168.428 38.3945H167.115ZM175.072 46H173.947V37.4688H175.072V46ZM179.648 42.1973C178.684 41.9199 177.98 41.5801 177.539 41.1777C177.102 40.7715 176.883 40.2715 176.883 39.6777C176.883 39.0059 177.15 38.4512 177.686 38.0137C178.225 37.5723 178.924 37.3516 179.783 37.3516C180.369 37.3516 180.891 37.4648 181.348 37.6914C181.809 37.918 182.164 38.2305 182.414 38.6289C182.668 39.0273 182.795 39.4629 182.795 39.9355H181.664C181.664 39.4199 181.5 39.0156 181.172 38.7227C180.844 38.4258 180.381 38.2773 179.783 38.2773C179.229 38.2773 178.795 38.4004 178.482 38.6465C178.174 38.8887 178.02 39.2266 178.02 39.6602C178.02 40.0078 178.166 40.3027 178.459 40.5449C178.756 40.7832 179.258 41.002 179.965 41.2012C180.676 41.4004 181.23 41.6211 181.629 41.8633C182.031 42.1016 182.328 42.3809 182.52 42.7012C182.715 43.0215 182.812 43.3984 182.812 43.832C182.812 44.5234 182.543 45.0781 182.004 45.4961C181.465 45.9102 180.744 46.1172 179.842 46.1172C179.256 46.1172 178.709 46.0059 178.201 45.7832C177.693 45.5566 177.301 45.248 177.023 44.8574C176.75 44.4668 176.613 44.0234 176.613 43.5273H177.744C177.744 44.043 177.934 44.4512 178.312 44.752C178.695 45.0488 179.205 45.1973 179.842 45.1973C180.436 45.1973 180.891 45.0762 181.207 44.834C181.523 44.5918 181.682 44.2617 181.682 43.8438C181.682 43.4258 181.535 43.1035 181.242 42.877C180.949 42.6465 180.418 42.4199 179.648 42.1973ZM185.713 37.4688L188.502 44.4297L191.291 37.4688H192.75V46H191.625V42.6777L191.73 39.0918L188.93 46H188.068L185.273 39.1094L185.385 42.6777V46H184.26V37.4688H185.713ZM195.943 46H194.818V37.4688H195.943V46ZM204.562 46H203.432L199.137 39.4258V46H198.006V37.4688H199.137L203.443 44.0723V37.4688H204.562V46ZM212.566 37.4688V43.2695C212.562 44.0742 212.309 44.7324 211.805 45.2441C211.305 45.7559 210.625 46.043 209.766 46.1055L209.467 46.1172C208.533 46.1172 207.789 45.8652 207.234 45.3613C206.68 44.8574 206.398 44.1641 206.391 43.2812V37.4688H207.504V43.2461C207.504 43.8633 207.674 44.3438 208.014 44.6875C208.354 45.0273 208.838 45.1973 209.467 45.1973C210.104 45.1973 210.59 45.0273 210.926 44.6875C211.266 44.3477 211.436 43.8691 211.436 43.252V37.4688H212.566ZM216.943 41.752L219.17 37.4688H220.447L217.506 42.8184V46H216.381V42.8184L213.439 37.4688H214.729L216.943 41.752ZM225.709 43.7734H222.135L221.332 46H220.172L223.43 37.4688H224.414L227.678 46H226.523L225.709 43.7734ZM222.475 42.8477H225.375L223.922 38.8574L222.475 42.8477ZM242.467 43.7734H238.893L238.09 46H236.93L240.188 37.4688H241.172L244.436 46H243.281L242.467 43.7734ZM239.232 42.8477H242.133L240.68 38.8574L239.232 42.8477ZM248.777 41.7227L249.211 37.4688H253.582V38.4707H250.131L249.873 40.7969C250.291 40.5508 250.766 40.4277 251.297 40.4277C252.074 40.4277 252.691 40.6855 253.148 41.2012C253.605 41.7129 253.834 42.4062 253.834 43.2812C253.834 44.1602 253.596 44.8535 253.119 45.3613C252.646 45.8652 251.984 46.1172 251.133 46.1172C250.379 46.1172 249.764 45.9082 249.287 45.4902C248.811 45.0723 248.539 44.4941 248.473 43.7559H249.498C249.564 44.2441 249.738 44.6133 250.02 44.8633C250.301 45.1094 250.672 45.2324 251.133 45.2324C251.637 45.2324 252.031 45.0605 252.316 44.7168C252.605 44.373 252.75 43.8984 252.75 43.293C252.75 42.7227 252.594 42.2656 252.281 41.9219C251.973 41.5742 251.561 41.4004 251.045 41.4004C250.572 41.4004 250.201 41.5039 249.932 41.7109L249.645 41.9453L248.777 41.7227ZM260.367 42.3613C260.367 43.6309 260.15 44.5742 259.717 45.1914C259.283 45.8086 258.605 46.1172 257.684 46.1172C256.773 46.1172 256.1 45.8164 255.662 45.2148C255.225 44.6094 254.998 43.707 254.982 42.5078V41.0605C254.982 39.8066 255.199 38.875 255.633 38.2656C256.066 37.6562 256.746 37.3516 257.672 37.3516C258.59 37.3516 259.266 37.6465 259.699 38.2363C260.133 38.8223 260.355 39.7285 260.367 40.9551V42.3613ZM259.283 40.8789C259.283 39.9609 259.154 39.293 258.896 38.875C258.639 38.4531 258.23 38.2422 257.672 38.2422C257.117 38.2422 256.713 38.4512 256.459 38.8691C256.205 39.2871 256.074 39.9297 256.066 40.7969V42.5312C256.066 43.4531 256.199 44.1348 256.465 44.5762C256.734 45.0137 257.141 45.2324 257.684 45.2324C258.219 45.2324 258.615 45.0254 258.873 44.6113C259.135 44.1973 259.271 43.5449 259.283 42.6543V40.8789ZM267.182 42.0332L266.139 43.1172V46H265.014V37.4688H266.139V41.6875L269.93 37.4688H271.289L267.932 41.2363L271.553 46H270.205L267.182 42.0332ZM273.246 39.6602L273.275 40.3633C273.74 39.8164 274.367 39.543 275.156 39.543C276.043 39.543 276.646 39.8828 276.967 40.5625C277.178 40.2578 277.451 40.0117 277.787 39.8242C278.127 39.6367 278.527 39.543 278.988 39.543C280.379 39.543 281.086 40.2793 281.109 41.752V46H280.025V41.8164C280.025 41.3633 279.922 41.0254 279.715 40.8027C279.508 40.5762 279.16 40.4629 278.672 40.4629C278.27 40.4629 277.936 40.584 277.67 40.8262C277.404 41.0645 277.25 41.3867 277.207 41.793V46H276.117V41.8457C276.117 40.9238 275.666 40.4629 274.764 40.4629C274.053 40.4629 273.566 40.7656 273.305 41.3711V46H272.221V39.6602H273.246Z" fill="black"/>
</svg>
