<svg width="485" height="80" viewBox="0 0 485 80" fill="none" xmlns="http://www.w3.org/2000/svg">
<rect width="485" height="80" fill="white"/>
<path d="M165.99 46V37.4688H168.779C169.705 37.4688 170.4 37.6602 170.865 38.043C171.334 38.4258 171.568 38.9922 171.568 39.7422C171.568 40.1406 171.455 40.4941 171.229 40.8027C171.002 41.1074 170.693 41.3438 170.303 41.5117C170.764 41.6406 171.127 41.8867 171.393 42.25C171.662 42.6094 171.797 43.0391 171.797 43.5391C171.797 44.3047 171.549 44.9062 171.053 45.3438C170.557 45.7812 169.855 46 168.949 46H165.99ZM167.115 42.0098V45.0801H168.973C169.496 45.0801 169.908 44.9453 170.209 44.6758C170.514 44.4023 170.666 44.0273 170.666 43.5508C170.666 42.5234 170.107 42.0098 168.99 42.0098H167.115ZM167.115 41.1074H168.814C169.307 41.1074 169.699 40.9844 169.992 40.7383C170.289 40.4922 170.438 40.1582 170.438 39.7363C170.438 39.2676 170.301 38.9277 170.027 38.7168C169.754 38.502 169.338 38.3945 168.779 38.3945H167.115V41.1074ZM174.475 46H173.391V39.6602H174.475V46ZM173.303 37.9785C173.303 37.8027 173.355 37.6543 173.461 37.5332C173.57 37.4121 173.73 37.3516 173.941 37.3516C174.152 37.3516 174.312 37.4121 174.422 37.5332C174.531 37.6543 174.586 37.8027 174.586 37.9785C174.586 38.1543 174.531 38.3008 174.422 38.418C174.312 38.5352 174.152 38.5938 173.941 38.5938C173.73 38.5938 173.57 38.5352 173.461 38.418C173.355 38.3008 173.303 38.1543 173.303 37.9785ZM178.846 46.1172C177.986 46.1172 177.287 45.8359 176.748 45.2734C176.209 44.707 175.939 43.9512 175.939 43.0059V42.8066C175.939 42.1777 176.059 41.6172 176.297 41.125C176.539 40.6289 176.875 40.2422 177.305 39.9648C177.738 39.6836 178.207 39.543 178.711 39.543C179.535 39.543 180.176 39.8145 180.633 40.3574C181.09 40.9004 181.318 41.6777 181.318 42.6895V43.1406H177.023C177.039 43.7656 177.221 44.2715 177.568 44.6582C177.92 45.041 178.365 45.2324 178.904 45.2324C179.287 45.2324 179.611 45.1543 179.877 44.998C180.143 44.8418 180.375 44.6348 180.574 44.377L181.236 44.8926C180.705 45.709 179.908 46.1172 178.846 46.1172ZM178.711 40.4336C178.273 40.4336 177.906 40.5938 177.609 40.9141C177.312 41.2305 177.129 41.6758 177.059 42.25H180.234V42.168C180.203 41.6172 180.055 41.1914 179.789 40.8906C179.523 40.5859 179.164 40.4336 178.711 40.4336ZM183.604 39.6602L183.639 40.457C184.123 39.8477 184.756 39.543 185.537 39.543C186.877 39.543 187.553 40.2988 187.564 41.8105V46H186.48V41.8047C186.477 41.3477 186.371 41.0098 186.164 40.791C185.961 40.5723 185.643 40.4629 185.209 40.4629C184.857 40.4629 184.549 40.5566 184.283 40.7441C184.018 40.9316 183.811 41.1777 183.662 41.4824V46H182.578V39.6602H183.604ZM191.291 44.5293L192.861 39.6602H193.969L191.695 46H190.869L188.572 39.6602H189.68L191.291 44.5293ZM197.561 46.1172C196.701 46.1172 196.002 45.8359 195.463 45.2734C194.924 44.707 194.654 43.9512 194.654 43.0059V42.8066C194.654 42.1777 194.773 41.6172 195.012 41.125C195.254 40.6289 195.59 40.2422 196.02 39.9648C196.453 39.6836 196.922 39.543 197.426 39.543C198.25 39.543 198.891 39.8145 199.348 40.3574C199.805 40.9004 200.033 41.6777 200.033 42.6895V43.1406H195.738C195.754 43.7656 195.936 44.2715 196.283 44.6582C196.635 45.041 197.08 45.2324 197.619 45.2324C198.002 45.2324 198.326 45.1543 198.592 44.998C198.857 44.8418 199.09 44.6348 199.289 44.377L199.951 44.8926C199.42 45.709 198.623 46.1172 197.561 46.1172ZM197.426 40.4336C196.988 40.4336 196.621 40.5938 196.324 40.9141C196.027 41.2305 195.844 41.6758 195.773 42.25H198.949V42.168C198.918 41.6172 198.77 41.1914 198.504 40.8906C198.238 40.5859 197.879 40.4336 197.426 40.4336ZM202.318 39.6602L202.354 40.457C202.838 39.8477 203.471 39.543 204.252 39.543C205.592 39.543 206.268 40.2988 206.279 41.8105V46H205.195V41.8047C205.191 41.3477 205.086 41.0098 204.879 40.791C204.676 40.5723 204.357 40.4629 203.924 40.4629C203.572 40.4629 203.264 40.5566 202.998 40.7441C202.732 40.9316 202.525 41.1777 202.377 41.4824V46H201.293V39.6602H202.318ZM209.092 46H208.008V39.6602H209.092V46ZM207.92 37.9785C207.92 37.8027 207.973 37.6543 208.078 37.5332C208.188 37.4121 208.348 37.3516 208.559 37.3516C208.77 37.3516 208.93 37.4121 209.039 37.5332C209.148 37.6543 209.203 37.8027 209.203 37.9785C209.203 38.1543 209.148 38.3008 209.039 38.418C208.93 38.5352 208.77 38.5938 208.559 38.5938C208.348 38.5938 208.188 38.5352 208.078 38.418C207.973 38.3008 207.92 38.1543 207.92 37.9785ZM210.568 42.7773C210.568 41.8047 210.799 41.0234 211.26 40.4336C211.721 39.8398 212.324 39.543 213.07 39.543C213.812 39.543 214.4 39.7969 214.834 40.3047V37H215.918V46H214.922L214.869 45.3203C214.436 45.8516 213.832 46.1172 213.059 46.1172C212.324 46.1172 211.725 45.8164 211.26 45.2148C210.799 44.6133 210.568 43.8281 210.568 42.8594V42.7773ZM211.652 42.9004C211.652 43.6191 211.801 44.1816 212.098 44.5879C212.395 44.9941 212.805 45.1973 213.328 45.1973C214.016 45.1973 214.518 44.8887 214.834 44.2715V41.3594C214.51 40.7617 214.012 40.4629 213.34 40.4629C212.809 40.4629 212.395 40.668 212.098 41.0781C211.801 41.4883 211.652 42.0957 211.652 42.9004ZM217.318 42.7715C217.318 42.1504 217.439 41.5918 217.682 41.0957C217.928 40.5996 218.268 40.2168 218.701 39.9473C219.139 39.6777 219.637 39.543 220.195 39.543C221.059 39.543 221.756 39.8418 222.287 40.4395C222.822 41.0371 223.09 41.832 223.09 42.8242V42.9004C223.09 43.5176 222.971 44.0723 222.732 44.5645C222.498 45.0527 222.16 45.4336 221.719 45.707C221.281 45.9805 220.777 46.1172 220.207 46.1172C219.348 46.1172 218.65 45.8184 218.115 45.2207C217.584 44.623 217.318 43.832 217.318 42.8477V42.7715ZM218.408 42.9004C218.408 43.6035 218.57 44.168 218.895 44.5938C219.223 45.0195 219.66 45.2324 220.207 45.2324C220.758 45.2324 221.195 45.0176 221.52 44.5879C221.844 44.1543 222.006 43.5488 222.006 42.7715C222.006 42.0762 221.84 41.5137 221.508 41.084C221.18 40.6504 220.742 40.4336 220.195 40.4336C219.66 40.4336 219.229 40.6465 218.9 41.0723C218.572 41.498 218.408 42.1074 218.408 42.9004ZM230.572 46V37.4688H232.98C233.723 37.4688 234.379 37.6328 234.949 37.9609C235.52 38.2891 235.959 38.7559 236.268 39.3613C236.58 39.9668 236.738 40.6621 236.742 41.4473V41.9922C236.742 42.7969 236.586 43.502 236.273 44.1074C235.965 44.7129 235.521 45.1777 234.943 45.502C234.369 45.8262 233.699 45.9922 232.934 46H230.572ZM231.697 38.3945V45.0801H232.881C233.748 45.0801 234.422 44.8105 234.902 44.2715C235.387 43.7324 235.629 42.9648 235.629 41.9688V41.4707C235.629 40.502 235.4 39.75 234.943 39.2148C234.49 38.6758 233.846 38.4023 233.01 38.3945H231.697ZM239.654 46H238.529V37.4688H239.654V46ZM244.23 42.1973C243.266 41.9199 242.562 41.5801 242.121 41.1777C241.684 40.7715 241.465 40.2715 241.465 39.6777C241.465 39.0059 241.732 38.4512 242.268 38.0137C242.807 37.5723 243.506 37.3516 244.365 37.3516C244.951 37.3516 245.473 37.4648 245.93 37.6914C246.391 37.918 246.746 38.2305 246.996 38.6289C247.25 39.0273 247.377 39.4629 247.377 39.9355H246.246C246.246 39.4199 246.082 39.0156 245.754 38.7227C245.426 38.4258 244.963 38.2773 244.365 38.2773C243.811 38.2773 243.377 38.4004 243.064 38.6465C242.756 38.8887 242.602 39.2266 242.602 39.6602C242.602 40.0078 242.748 40.3027 243.041 40.5449C243.338 40.7832 243.84 41.002 244.547 41.2012C245.258 41.4004 245.812 41.6211 246.211 41.8633C246.613 42.1016 246.91 42.3809 247.102 42.7012C247.297 43.0215 247.395 43.3984 247.395 43.832C247.395 44.5234 247.125 45.0781 246.586 45.4961C246.047 45.9102 245.326 46.1172 244.424 46.1172C243.838 46.1172 243.291 46.0059 242.783 45.7832C242.275 45.5566 241.883 45.248 241.605 44.8574C241.332 44.4668 241.195 44.0234 241.195 43.5273H242.326C242.326 44.043 242.516 44.4512 242.895 44.752C243.277 45.0488 243.787 45.1973 244.424 45.1973C245.018 45.1973 245.473 45.0762 245.789 44.834C246.105 44.5918 246.264 44.2617 246.264 43.8438C246.264 43.4258 246.117 43.1035 245.824 42.877C245.531 42.6465 245 42.4199 244.23 42.1973ZM250.295 37.4688L253.084 44.4297L255.873 37.4688H257.332V46H256.207V42.6777L256.312 39.0918L253.512 46H252.65L249.855 39.1094L249.967 42.6777V46H248.842V37.4688H250.295ZM265.324 37.4688V43.2695C265.32 44.0742 265.066 44.7324 264.562 45.2441C264.062 45.7559 263.383 46.043 262.523 46.1055L262.225 46.1172C261.291 46.1172 260.547 45.8652 259.992 45.3613C259.438 44.8574 259.156 44.1641 259.148 43.2812V37.4688H260.262V43.2461C260.262 43.8633 260.432 44.3438 260.771 44.6875C261.111 45.0273 261.596 45.1973 262.225 45.1973C262.861 45.1973 263.348 45.0273 263.684 44.6875C264.023 44.3477 264.193 43.8691 264.193 43.252V37.4688H265.324ZM273.656 46H272.525L268.23 39.4258V46H267.1V37.4688H268.23L272.537 44.0723V37.4688H273.656V46ZM281.66 37.4688V43.2695C281.656 44.0742 281.402 44.7324 280.898 45.2441C280.398 45.7559 279.719 46.043 278.859 46.1055L278.561 46.1172C277.627 46.1172 276.883 45.8652 276.328 45.3613C275.773 44.8574 275.492 44.1641 275.484 43.2812V37.4688H276.598V43.2461C276.598 43.8633 276.768 44.3438 277.107 44.6875C277.447 45.0273 277.932 45.1973 278.561 45.1973C279.197 45.1973 279.684 45.0273 280.02 44.6875C280.359 44.3477 280.529 43.8691 280.529 43.252V37.4688H281.66ZM286.037 41.752L288.264 37.4688H289.541L286.6 42.8184V46H285.475V42.8184L282.533 37.4688H283.822L286.037 41.752ZM294.803 43.7734H291.229L290.426 46H289.266L292.523 37.4688H293.508L296.771 46H295.617L294.803 43.7734ZM291.568 42.8477H294.469L293.016 38.8574L291.568 42.8477Z" fill="black"/>
</svg>
